Coordinates
version=1
nRows=18
nColumns=28
inDegrees=yes

Units are S.I. units (second, meters, Newtons, ...)
Angles are in degrees.

endheader
time	pelvis_tilt	pelvis_list	pelvis_rotation	pelvis_tx	pelvis_ty	pelvis_tz	hip_flexion_r	hip_adduction_r	hip_rotation_r	knee_angle_r	ankle_angle_r	subtalar_angle_r	mtp_angle_r	hip_flexion_l	hip_adduction_l	hip_rotation_l	knee_angle_l	socket_flexion	socket_adduction	socket_rotation	socket_tx	socket_ty	socket_tz	foot_flex	lumbar_extension	lumbar_bending	lumbar_rotation
      0.93750000	     14.11621117	      0.10601151	     -8.61999762	      0.47948646	      1.04690261	      0.31780330	     -7.26748543	      0.19352944	     -8.49565261	    -20.43851377	      7.42440137	      4.56892806	     37.45989281	     -5.73514807	      1.39791516	     -5.56001094	    -54.82617266	      0.00000000	      0.00000000	      0.00000000	      0.00000000	      0.02039094	      0.00000000	      2.58247619	    -23.89907900	     -2.59402740	     13.66719591
      0.94166667	     14.40114168	      0.17067299	     -9.13891877	      0.48393969	      1.04794581	      0.31841112	     -7.78622271	     -0.18972403	     -8.68845239	    -20.47103648	      7.35241468	      5.90611282	     38.14941811	     -5.72073604	      1.55092267	     -5.70023329	    -54.13029971	      0.00000000	      0.00000000	      0.00000000	      0.00000000	      0.01945109	      0.00000000	      2.51428513	    -24.22000680	     -2.96706815	     14.66122697
      0.94583333	     14.40446464	      0.14462004	     -9.38221147	      0.48798535	      1.04874832	      0.31875410	     -8.05262320	     -0.28532656	     -8.73917124	    -20.41866658	      7.35726428	      5.92877852	     38.14994123	     -5.19363260	      1.48908776	     -5.60372975	    -53.75089509	      0.00000000	      0.00000000	      0.00000000	      0.00000000	      0.01904966	      0.00000000	      2.54874514	    -24.35690094	     -3.01990441	     14.66075409
      0.95000000	     14.55061742	      0.34640472	     -9.68830360	      0.49297700	      1.04973017	      0.31912770	     -8.65597754	     -0.71668254	     -8.92122539	    -19.98997058	      7.14761857	      7.05831419	     39.12606831	     -5.07523849	      1.79686029	     -5.37847266	    -52.88072980	      0.00000000	      0.00000000	      0.00000000	      0.00000000	      0.01812020	      0.00000000	      2.44584531	    -24.41042916	     -3.42273464	     15.07223933
      0.95416667	     14.52571038	      0.44579691	     -9.96057275	      0.49750131	      1.05050885	      0.31960857	     -9.01046729	     -0.93281719	     -8.90322254	    -19.69421582	      6.95704982	      7.23616922	     39.28546605	     -4.63044869	      1.89698615	     -5.22712024	    -52.24617862	      0.00000000	      0.00000000	      0.00000000	      0.00000000	      0.01762844	      0.00000000	      2.37760915	    -24.37524032	     -3.63669232	     15.12771840
      0.95833333	     14.49169517	      0.49041440	    -10.21420590	      0.50187015	      1.05120213	      0.31998974	     -9.32759023	     -1.09000974	     -8.86023212	    -19.45664162	      6.90247720	      7.35595142	     39.33778367	     -4.19166032	      1.94562216	     -5.01201361	    -51.58179053	      0.00000000	      0.00000000	      0.00000000	      0.00000000	      0.01704854	      0.00000000	      2.42695062	    -24.38444514	     -3.77949733	     15.20048972
      0.96250000	     14.45873222	      0.54450156	    -10.48299005	      0.50635093	      1.05189171	      0.32036485	     -9.66838969	     -1.26023667	     -8.79482256	    -19.16855989	      6.78371571	      7.55079151	     39.40172572	     -3.79664403	      2.02021185	     -4.78816598	    -50.82169553	      0.00000000	      0.00000000	      0.00000000	      0.00000000	      0.01637784	      0.00000000	      2.37102598	    -24.35587213	     -3.94432043	     15.33584481
      0.96666667	     14.46293462	      0.49385831	    -10.73940097	      0.51007410	      1.05255342	      0.32071272	     -9.89906638	     -1.33933214	     -8.84503499	    -19.14033925	      6.76750605	      7.58209552	     39.40032989	     -3.25161418	      1.92940178	     -4.66917088	    -50.35970343	      0.00000000	      0.00000000	      0.00000000	      0.00000000	      0.01635411	      0.00000000	      2.40459288	    -24.53823448	     -3.99551377	     15.36118180
      0.97083333	     14.62193944	      0.49691794	    -11.18818368	      0.51520144	      1.05333658	      0.32126678	    -10.52716278	     -1.60152564	     -8.89545861	    -18.72214923	      6.40811212	      8.83813049	     40.37526362	     -3.38594965	      2.05469975	     -4.51783300	    -49.11399508	      0.00000000	      0.00000000	      0.00000000	      0.00000000	      0.01479550	      0.00000000	      2.17550362	    -24.57200447	     -4.27703394	     16.30650533
      0.97500000	     14.54432526	      0.53357731	    -11.42593490	      0.51959932	      1.05381196	      0.32156688	    -10.79441353	     -1.75374626	     -8.86401756	    -18.48900227	      6.26729436	      8.96861558	     40.47801624	     -2.97864967	      2.10214974	     -4.19831824	    -48.25593079	      0.00000000	      0.00000000	      0.00000000	      0.00000000	      0.01409978	      0.00000000	      2.14881305	    -24.52161879	     -4.38221098	     16.29202796
      0.97916667	     14.48929246	      0.52519884	    -11.65118376	      0.52374328	      1.05429220	      0.32177545	    -11.03745412	     -1.85846476	     -8.79251886	    -18.34951499	      6.18154046	      9.09645740	     40.52891316	     -2.55537307	      2.10296586	     -3.86728068	    -47.44291978	      0.00000000	      0.00000000	      0.00000000	      0.00000000	      0.01360250	      0.00000000	      2.17764255	    -24.54475028	     -4.44140332	     16.34395749
      0.98333333	     14.40421553	      0.47818112	    -11.90885038	      0.52830470	      1.05470461	      0.32212180	    -11.35962975	     -1.93033599	     -8.76206434	    -18.02061269	      5.95103207	      9.46948241	     40.70947587	     -2.22395528	      2.04743102	     -3.59758403	    -46.47280242	      0.00000000	      0.00000000	      0.00000000	      0.00000000	      0.01272403	      0.00000000	      2.01203216	    -24.46263979	     -4.49746483	     16.57441186
      0.98750000	     14.40770103	      0.37648155	    -12.19189432	      0.53256661	      1.05512421	      0.32241867	    -11.69326002	     -1.99020963	     -8.77745486	    -17.84578926	      5.70020297	     10.08557996	     41.23815928	     -1.98316950	      1.95920469	     -3.31801827	    -45.51038577	      0.00000000	      0.00000000	      0.00000000	      0.00000000	      0.01188914	      0.00000000	      1.98793212	    -24.52394558	     -4.52122793	     16.97261216
      0.99166667	     14.33448198	      0.35661340	    -12.41409068	      0.53671385	      1.05543895	      0.32264845	    -11.91627547	     -2.08323211	     -8.71227971	    -17.72519898	      5.68176669	     10.17212720	     41.30162257	     -1.58181397	      1.93628377	     -2.94585086	    -44.61382808	      0.00000000	      0.00000000	      0.00000000	      0.00000000	      0.01142359	      0.00000000	      1.97720796	    -24.53538766	     -4.56862219	     16.99927642
      0.99583333	     14.24132474	      0.30946800	    -12.63229966	      0.54092816	      1.05567756	      0.32288459	    -12.14638098	     -2.13771617	     -8.62470036	    -17.56341720	      5.62224839	     10.31496975	     41.35686583	     -1.20928060	      1.87803039	     -2.54466378	    -43.63822592	      0.00000000	      0.00000000	      0.00000000	      0.00000000	      0.01079155	      0.00000000	      1.92892273	    -24.49905386	     -4.59783413	     17.06751078
      1.00000000	     14.10168733	      0.16681439	    -12.83291927	      0.54536112	      1.05583265	      0.32313153	    -12.42180998	     -2.07646408	     -8.54034788	    -17.25883456	      5.40775957	     10.73012861	     41.53058558	     -0.87066918	      1.68429708	     -2.19611062	    -42.58997051	      0.00000000	      0.00000000	      0.00000000	      0.00000000	      0.00984961	      0.00000000	      1.77788112	    -24.39897179	     -4.50547485	     17.35062176
      1.00416667	     14.02220027	      0.09814736	    -13.06019525	      0.54937728	      1.05600054	      0.32337647	    -12.61494421	     -2.11682948	     -8.45377957	    -17.18449832	      5.37416678	     10.83722848	     41.57206339	     -0.49332894	      1.59613511	     -1.77906550	    -41.64464493	      0.00000000	      0.00000000	      0.00000000	      0.00000000	      0.00945706	      0.00000000	      1.79489383	    -24.41155285	     -4.52957117	     17.41121591
      1.00833333	     13.84958937	     -0.09456823	    -13.25690975	      0.55382311	      1.05601915	      0.32364879	    -12.87729758	     -1.98775659	     -8.35377265	    -16.85899033	      5.19740476	     11.23321911	     41.72071206	     -0.15271464	      1.32908418	     -1.40255797	    -40.56641275	      0.00000000	      0.00000000	      0.00000000	      0.00000000	      0.00849426	      0.00000000	      1.61070437	    -24.27357903	     -4.38946077	     17.72231031
